<svg width="213" height="199" viewBox="0 0 213 199" xmlns="http://www.w3.org/2000/svg" xmlns:xlink="http://www.w3.org/1999/xlink"><title>Combined Shape</title><defs><filter x="-5.5%" y="-3.7%" width="111.1%" height="111.7%" filterUnits="objectBoundingBox" id="a"><feOffset dy="2" in="SourceAlpha" result="shadowOffsetOuter1"/><feGaussianBlur stdDeviation="2" in="shadowOffsetOuter1" result="shadowBlurOuter1"/><feColorMatrix values="0 0 0 0 0 0 0 0 0 0 0 0 0 0 0 0 0 0 0.2 0" in="shadowBlurOuter1" result="shadowMatrixOuter1"/><feMerge><feMergeNode in="shadowMatrixOuter1"/><feMergeNode in="SourceGraphic"/></feMerge></filter><linearGradient x1="50%" y1="100%" x2="50%" y2="0%" id="d"><stop stop-color="#6713D2" offset="0%"/><stop stop-color="#CC208E" offset="98.057%"/></linearGradient><path d="M89.295 11.356L89 11.064 100.15 0l.314.31.314-.31L112 11.013l-.363.36L199 97.873V120l-98.522-97.57L0 122V99.653l89.295-88.297zm11.205 152.83l37.686-37.686-37.495-37.496L85.184 104 74 93.142l15.548-15.28-.61-.61 11.313-11.314 49.25 49.248.25-.248 11.312 11.313-.248.25.248.25-.263.262L199 165.24V187l-49.026-49.163-.225.225-.25-.248-37.686 37.686.248.25-11.313 11.312-.25-.248-.25.248L88.94 175.75l.248-.25-38.752-38.753L0 187v-20.753l40.154-39.78-.216-.216L51.25 114.94l49.25 49.248z" id="c"/><filter x="-3.5%" y="-2.7%" width="107%" height="107.5%" filterUnits="objectBoundingBox" id="b"><feOffset dy="2" in="SourceAlpha" result="shadowOffsetOuter1"/><feGaussianBlur stdDeviation="2" in="shadowOffsetOuter1" result="shadowBlurOuter1"/><feColorMatrix values="0 0 0 0 0 0 0 0 0 0 0 0 0 0 0 0 0 0 0.5 0" in="shadowBlurOuter1"/></filter></defs><g filter="url(#a)" transform="translate(7 2)" fill-rule="nonzero" fill="none"><use fill="#000" filter="url(#b)" xlink:href="#c"/><use fill="url(#d)" fill-rule="evenodd" xlink:href="#c"/></g></svg>